<svg xmlns="http://www.w3.org/2000/svg" width="70" height="70" fill="none" viewBox="0 0 70 70">
    <path fill="#000" d="M27.932 34.56l.598.047c.015-.185-.057-.366-.194-.491l-.404.443zM27.576 39l-.598-.048c-.018.225.091.441.284.56.192.117.435.118.627 0L27.576 39zm3.866-2.368l.196-.567c-.17-.059-.357-.039-.51.055l.314.512zm12.958-8.52c0 4.651-4.155 8.514-9.4 8.514v1.2c5.8 0 10.6-4.298 10.6-9.713h-1.2zM35 19.6c5.245 0 9.4 3.863 9.4 8.513h1.2c0-5.416-4.8-9.713-10.6-9.713v1.2zm-9.4 8.513c0-4.65 4.155-8.513 9.4-8.513v-1.2c-5.8 0-10.6 4.297-10.6 9.713h1.2zm2.736 6.003c-1.699-1.547-2.736-3.67-2.736-6.003h-1.2c0 2.703 1.204 5.138 3.128 6.89l.808-.887zm-.162 4.932l.356-4.44-1.196-.097-.356 4.441 1.196.096zm2.954-2.928l-3.866 2.368.627 1.024 3.866-2.369-.627-1.023zm3.872.506c-1.186 0-2.32-.2-3.362-.561l-.393 1.134c1.168.405 2.434.627 3.755.627v-1.2zM29.502 53.106c-1.474-.33-3.586-1.815-3.586-3.388v-.759h-.87v.759c0 1.573-2.001 3.058-3.563 3.366l.44.715c1.672-.473 3.2-1.837 3.542-2.816.396.979 1.958 2.343 3.575 2.827l.462-.704zm.319 3.344v-.704h-8.68v.704h8.68zm2.037-1.661v-2.332h3.553v-.682h-3.553V49.74h3.762v-.693h-4.609v6.468h.792c1.771 0 3.608-.154 4.686-.352l-.099-.704c-.946.22-2.86.33-4.532.33zm6.182-6.633h-.825v9.614h.825v-5.093h1.551v-.704h-1.55v-3.817zm9.99 4.862v-4.862h-.835v4.862h.836zm.353 4.62v-.682H42.64v-1.1h5.39v-2.332h-6.26v.682h5.424v1.001h-5.39v2.431h6.578zm-5.445-9.185c-1.386 0-2.508.88-2.508 2.178 0 1.309 1.133 2.145 2.508 2.145s2.486-.847 2.486-2.145c0-1.309-1.111-2.178-2.486-2.178zm0 .726c1 0 1.672.594 1.672 1.452 0 .847-.671 1.419-1.672 1.419-.957 0-1.694-.572-1.694-1.43s.748-1.441 1.694-1.441z"/>
</svg>
